<svg width="1080" height="1080" viewBox="0 0 1080 1080" fill="none"
    xmlns="http://www.w3.org/2000/svg">
    <g clip-path="url(#clip0_362_345)">
        <path d="M175.706 468.36L56 823.622H169.107L633.858 460.579L225.393 656.682L288.812 468.36H175.706ZM302.787 426.862L345.536 553.696L442.921 506.948L359.365 259.036H246.258L302.787 426.862ZM394.01 697.484L436.467 823.622H549.622L483.534 627.583L394.01 697.484Z" fill="black"/>
    </g>
    <path d="M710.812 475.125L753.876 563.502L790.834 475.125H886.281L797.261 645.13L889.816 822.848H793.726L749.698 731.257L707.599 822.848H611.188L699.564 646.094L614.401 475.125H710.812ZM912.659 776.892C912.659 762.752 917.372 750.968 926.799 741.541C936.226 731.9 948.974 727.079 965.042 727.079C981.111 727.079 993.859 731.9 1003.29 741.541C1012.71 750.968 1017.43 762.752 1017.43 776.892C1017.43 791.032 1012.71 802.816 1003.29 812.243C993.859 821.669 981.111 826.383 965.042 826.383C948.974 826.383 936.226 821.669 926.799 812.243C917.372 802.816 912.659 791.032 912.659 776.892Z" fill="black"/>
</svg>
